<svg xmlns="http://www.w3.org/2000/svg" xmlns:xlink="http://www.w3.org/1999/xlink" width="1500" height="152" viewBox="0 0 1500 152"><svg xml:space="preserve" width="1500" height="152" data-version="2" data-id="lg_SKXtz08pw7RW7aUj7F" viewBox="0 0 504 152" x="0" y="0"><rect width="100%" height="100%" fill="transparent"></rect><path fill="#3d3d3d" d="M222.5 49.64h6.84l-11.48 49.78h-8.66l-10.19-42.41-10.11 42.41h-8.66l-11.55-49.78h6.84l9.27 42.71 9.8-42.71h8.82l9.88 42.71z"></path><rect width="60.65" height="49.78" x="-30.32" y="-24.89" fill="none" rx="0" ry="0" transform="translate(199.51 75.03)"></rect><path fill="#3d3d3d" d="M236.56 62.33h6.46v37.09h-6.46zm3.19-14.97q2.05 0 3.15.91 1.1.92 1.1 2.59v2.2q0 1.67-1.1 2.55-1.1.87-3.15.87-1.98 0-3.08-.87-1.1-.88-1.1-2.55v-2.2q0-1.67 1.1-2.59 1.1-.91 3.08-.91"></path><rect width="8.43" height="52.06" x="-4.21" y="-26.03" fill="none" rx="0" ry="0" transform="translate(240.28 73.89)"></rect><path fill="#3d3d3d" d="M264.3 61.42q3.19 0 7.67.91l-.15 5.48q-3.95-.92-7.22-.92-6.84 0-6.84 4.41v.69q0 1.36.72 2.2.72.84 2.62 1.75l7.15 3.34q6.46 3.04 6.46 8.89v1.68q-.08 5.24-3.16 7.86-3.07 2.62-9.69 2.62-3.42 0-9.8-1.59l.3-5.78q5.7 1.67 9.35 1.67 3.73 0 5.17-1.02 1.44-1.03 1.44-3.38v-.76q0-1.83-.72-2.89-.72-1.07-2.39-1.83l-7.37-3.26q-3.35-1.52-4.91-3.65-1.55-2.13-1.55-4.94v-1.07q.15-5.16 3.23-7.79 3.07-2.62 9.69-2.62"></path><rect width="23.33" height="38.91" x="-11.66" y="-19.45" fill="none" rx="0" ry="0" transform="translate(263.55 81.38)"></rect><path fill="#3d3d3d" d="M294.85 61.42q6.38 0 9.73 3.5 3.34 3.49 3.34 10.11v7.82h-19.53v4.49q0 3.87 1.86 5.58t5.89 1.71q3.95 0 9.88-1.21l.15 5.62q-7.07 1.29-10.11 1.29-7.52 0-10.83-3.26-3.3-3.27-3.3-10.11V75.03q0-6.62 3.23-10.11 3.23-3.5 9.69-3.5m0 5.4q-2.97 0-4.71 1.86-1.75 1.86-1.75 5.36v3.65h13.07v-3.42q0-3.65-1.79-5.55-1.78-1.9-4.82-1.9"></path><rect width="25.99" height="38.91" x="-12.99" y="-19.45" fill="none" rx="0" ry="0" transform="translate(295.43 81.38)"></rect><path fill="#3d3d3d" d="M343.26 49.64h6.46v49.78h-6.46v-22.8H323.5v22.8h-6.46V49.64h6.46v21.21h19.76z"></path><rect width="32.68" height="49.78" x="-16.34" y="-24.89" fill="none" rx="0" ry="0" transform="translate(333.88 75.03)"></rect><path fill="#3d3d3d" d="M372.9 61.42q6.38 0 9.73 3.5 3.34 3.49 3.34 10.11v7.82h-19.53v4.49q0 3.87 1.86 5.58t5.89 1.71q3.95 0 9.88-1.21l.15 5.62q-7.06 1.29-10.1 1.29-7.53 0-10.83-3.26-3.31-3.27-3.31-10.11V75.03q0-6.62 3.23-10.11 3.23-3.5 9.69-3.5m0 5.4q-2.96 0-4.71 1.86t-1.75 5.36v3.65h13.07v-3.42q0-3.65-1.78-5.55-1.79-1.9-4.83-1.9"></path><rect width="25.99" height="38.91" x="-12.99" y="-19.45" fill="none" rx="0" ry="0" transform="translate(373.48 81.38)"></rect><path fill="#3d3d3d" d="M406.04 61.42q6.53 0 9.53 2.93 3.01 2.92 3.01 9.31v25.76h-6.16v-5.93q-4.41 6.84-9.96 6.84-4.4 0-7.03-3.04-2.62-3.04-2.62-8.28v-2.13q0-4.56 3.12-7.56 3.11-3 8.36-3 2.89 0 7.83.99v-4.18q0-3.27-1.49-4.72-1.48-1.44-4.59-1.44-3.65 0-10.26 1.14v-5.55q7.14-1.14 10.26-1.14m-.16 19.91q-3.19 0-4.86 1.68-1.67 1.67-1.67 4.71v.83q0 2.82 1.29 4.41 1.29 1.6 3.27 1.6 2.05 0 4.22-1.79 2.16-1.78 3.99-5.05v-5.85q-2.89-.54-6.24-.54"></path><rect width="25.77" height="38.91" x="-12.88" y="-19.45" fill="none" rx="0" ry="0" transform="translate(406.2 81.38)"></rect><path fill="#3d3d3d" d="M428.84 47.51h6.46v51.91h-6.46z"></path><rect width="6.46" height="51.91" x="-3.23" y="-25.95" fill="none" rx="0" ry="0" transform="translate(432.57 73.97)"></rect><path fill="#3d3d3d" d="M453.54 52.45v9.88h9.88v5.32h-9.88v21.74q0 2.89 1.17 4.14 1.18 1.26 3.69 1.26 3.19 0 6.23-.76l.15 5.39q-3.34.91-6.08.91-6.08 0-8.85-2.69-2.77-2.7-2.77-8.78V67.65h-5.32v-5.32h5.32l1.21-9.88z"></path><rect width="23.02" height="47.88" x="-11.51" y="-23.94" fill="none" rx="0" ry="0" transform="translate(453.77 76.89)"></rect><path fill="#3d3d3d" d="M478.08 47.51v19.76q4.18-5.85 9.73-5.85 4.87 0 7.49 3.31 2.62 3.3 2.62 9.38v25.31h-6.46V75.03q0-7.6-4.94-7.6-2.2 0-4.48 1.67-2.28 1.67-3.96 4.56v25.76h-6.46V47.51z"></path><rect width="26.3" height="51.91" x="-13.15" y="-25.95" fill="none" rx="0" ry="0" transform="translate(485.27 73.97)"></rect><g transform="translate(81.16 66.43)scale(1.6356)"><linearGradient id="a" x1="0" x2="1" y1="0" y2="0" gradientUnits="objectBoundingBox"><stop offset="0%" stop-color="#6ee2f5"></stop><stop offset="100%" stop-color="#6454f0"></stop></linearGradient><path fill="url(#a)" d="M51.2 39.7c-.1 0-.1 0 0 0-.1 0-.1 0 0 0" transform="translate(-51.16 -39.7)"></path></g><g transform="translate(83.13 75.84)scale(1.6356)"><linearGradient id="b" x1="0" x2="1" y1="0" y2="0" gradientUnits="objectBoundingBox"><stop offset="0%" stop-color="#6ee2f5"></stop><stop offset="100%" stop-color="#6454f0"></stop></linearGradient><path fill="url(#b)" d="M85.7 51.4c-.4-.6-.9-1.2-1.3-1.8-3-4.1-3.5-8.5-1.9-13.4 2.4-7.3.5-19.8-3.7-26.2-.3-.5-.7-.9-1-1.3 1 2.2 2.1 4.3 2.8 6.6.8 2.3 1 4.8-.6 7.1C80 10.3 72.9 4.2 62.5.8 69.3 3.3 74.7 7.4 77 14.9c1.2 4.2.6 10-1.5 13.4v-2.5C76.3 16.5 72 10 64.1 5.4c-6-3.4-10.3-4.8-20-3.6-7.5.9-14 3.9-19.2 9.4-8.6 8.9-9.3 23.5-1.5 33.2.3.4.7.8 1 1.2 2.3 2.2 5.9 4.7 5.9 4.7.1.1.2.2.3.2 14.6 7.7 28-2.8 30.6-7.8v-.1c2.9-5.3 3.8-10.7 2.1-16.4-2.1-7.1-6.9-11.5-13.2-13.3 1.8 1.3 4.4 2.8 6.4 4.8 6.6 6.8 5.7 17.4 4.3 21.1-.2.5-.4.9-.5 1.3-5.2 10.7-21.1 13.1-26.7 9.3h-.2s-.1 0-.1-.1c-4.5-2.2-8.7-7.2-8.7-7.2h-.1l-.6-.9c-6-8.8-4.2-21.9 3.9-29.2 10.8-9.7 26.7-9.7 37.3 0 5.3 4.9 7.6 11.2 7.1 18.3-.2 3.7-.7 10.7-6.8 20.5-.8 1.2-1.7 2.7-2.7 4.1-2.5 3.3-5 6.4-7.6 9.6-5.1 6.2-4.9 13.4.8 19 2.5 2.4 5.4 4.4 8.1 6.6l.5-.5c-.7-.9-1.5-1.9-2.2-2.8-2.2-3-3.6-6.1-2.9-9.9.6-3 1.3-3.5 4.1-2.5 2.4.8 4.8 1.6 7.2 2.2 1.2.3 2.6.2 3.9 0 3-.6 4.4-3 4-6-.1-.9.1-2.1.6-2.9.7-1.1 1-2 .6-3.4-.2-.5.3-1.6.8-1.9 1.1-.6 1.5-1.3 1.3-2.5-.2-1.3.4-2.2 1.6-2.7.3-.1.6-.3.9-.5 2.7-1.6 3-2.9 1.3-5.3" transform="translate(-52.36 -45.45)"></path></g><g transform="translate(68.83 53.35)scale(1.6356)"><linearGradient id="c" x1="0" x2="1" y1="0" y2="0" gradientUnits="objectBoundingBox"><stop offset="0%" stop-color="#6ee2f5"></stop><stop offset="100%" stop-color="#6454f0"></stop></linearGradient><path fill="url(#c)" d="M53.1 18.8c4.1 4.3 4.7 8 4 12.7-.9 5.9-4.5 8.3-4.5 8.3C45.1 46 33.4 43.2 31 35c-1.4-4.7-.5-8.8 3.1-12.1 3.4-3.2 7.4-4 11.8-2.2 4.6 1.9 7 7 5.8 11.6-1.2 4.5-5.3 7.3-10.1 6.8-3.9-.4-7-4-7.1-8.1 0-3.8 2.9-7 6.8-7.4 3.5-.4 6.7 2.2 7.3 5.9.5 3.2-1.8 6.1-5 6.7-2.8.5-5.6-1.4-6.2-4.2-.6-2.7 1-5.1 3.7-5.7 1.8-.4 3.1.2 4.2 1.6.8 1.1.3 2.3.2 2.4-.9 1.4-2.9 2.3-4.6 1.9-.8-.2-1.7-1.2-.7-2.2-.8.3-1.4 1.5.2 2.2 1.9.9 4.2.2 5.5-1.2 1.3-1.4 1.2-3.5-1-4.9-2-1.2-3.7-1.2-5.7-.1-2.1 1.2-2.9 3.1-2.7 5.4.3 3.6 3.4 6 7 5.6 3.9-.5 6.6-3.9 6.1-7.8-.5-3.8-3.4-6.6-7.1-6.8-4.2-.2-7.9 2.4-8.9 6.4-.9 4 .8 8.1 4.3 10.3 3.5 2.2 8.5 1.7 11.8-1.1 3.8-3.2 4.9-8.8 2.6-13.3-2.4-4.8-7.9-7.4-13.2-6.2-5.4 1.2-9.4 5.4-10.2 10.9-.8 5.1 1.9 11.5 6.4 13.8 10.6 5.6 18.9-2.3 19.4-2.7 5.1-5.2 5.5-17.1-1.6-21.7" transform="translate(-43.62 -31.7)"></path></g><g transform="translate(63.27 65.29)scale(1.6356)"><linearGradient id="e" x1="0" x2="1" y1="0" y2="0" gradientUnits="objectBoundingBox"><stop offset="0%" stop-color="#6ee2f5"></stop><stop offset="100%" stop-color="#6454f0"></stop></linearGradient><path fill="url(#e)" d="M40.2 39c.1 0 0 0 0 0" transform="translate(-40.22 -39)"></path></g><g transform="translate(63.27 65.29)scale(1.6356)"><linearGradient id="f" x1="0" x2="1" y1="0" y2="0" gradientUnits="objectBoundingBox"><stop offset="0%" stop-color="#6ee2f5"></stop><stop offset="100%" stop-color="#6454f0"></stop></linearGradient><path fill="url(#f)" d="M40.2 39s.1 0 0 0c.1 0 0 0 0 0" transform="translate(-40.22 -39)"></path></g><g transform="translate(52.64 74.53)scale(1.6356)"><linearGradient id="g" x1="0" x2="1" y1="0" y2="0" gradientUnits="objectBoundingBox"><stop offset="0%" stop-color="#6ee2f5"></stop><stop offset="100%" stop-color="#6454f0"></stop></linearGradient><path fill="url(#g)" d="M5.7 50.7c.4-.6.9-1.2 1.3-1.8 3-4.1 3.5-8.5 1.9-13.4-2.4-7.3-.5-19.8 3.7-26.2.3-.5.7-.9 1-1.3-1 2.2-2.1 4.3-2.8 6.6-.8 2.3-1 4.8.6 7.1C11.3 9.5 18.5 3.4 28.9 0c-6.8 2.6-12.3 6.8-14.5 14.2-1.2 4.2-.6 10 1.5 13.4v-2.5c-.8-9.3 3.5-15.8 11.4-20.4 6.3-3.6 16.2-5.3 26.1-3.3 7.4 1.5 13.1 10.2 6.5 6.4-6.7-3.9-23-6.4-33.6 3.4-5.3 4.9-7.6 11.2-7.1 18.3.2 3.7.7 10.7 6.8 20.5.8 1.2 1.7 2.7 2.7 4.1 2.5 3.3 5 6.4 7.6 9.6 5.1 6.2 4.9 13.4-.8 19-2.5 2.4-5.4 4.4-8.1 6.6l-.5-.5c.7-.9 1.5-1.9 2.2-2.8 2.2-3 3.6-6.1 2.9-9.9-.6-3-1.3-3.5-4.1-2.5-2.4.8-4.8 1.6-7.2 2.2-1.2.3-2.6.2-3.9 0-3-.6-4.4-3-4-6 .1-.9-.1-2.1-.6-2.9-.7-1.1-1-2-.6-3.4.2-.5-.3-1.6-.8-1.9-1.1-.6-1.5-1.3-1.3-2.5.2-1.3-.4-2.2-1.6-2.7-.3-.1-.6-.3-.9-.5-2.7-1.5-3-2.8-1.3-5.2" transform="translate(-33.73 -44.65)"></path></g></svg></svg>